<svg class="lds-spinner" width="200px"  height="200px"  xmlns="http://www.w3.org/2000/svg" xmlns:xlink="http://www.w3.org/1999/xlink" viewBox="0 0 100 100" preserveAspectRatio="xMidYMid" style="background: none;"><g transform="rotate(0 50 50)">
  <rect x="48" y="26.5" rx="9.6" ry="5.3" width="4" height="15">
    <animate attributeName="opacity" values="1;0" times="0;1" dur="1.1s" begin="-0.9777777777777779s" repeatCount="indefinite"></animate>
  </rect>
</g><g transform="rotate(40 50 50)">
  <rect x="48" y="26.5" rx="9.6" ry="5.3" width="4" height="15">
    <animate attributeName="opacity" values="1;0" times="0;1" dur="1.1s" begin="-0.8555555555555556s" repeatCount="indefinite"></animate>
  </rect>
</g><g transform="rotate(80 50 50)">
  <rect x="48" y="26.5" rx="9.6" ry="5.3" width="4" height="15">
    <animate attributeName="opacity" values="1;0" times="0;1" dur="1.1s" begin="-0.7333333333333334s" repeatCount="indefinite"></animate>
  </rect>
</g><g transform="rotate(120 50 50)">
  <rect x="48" y="26.5" rx="9.6" ry="5.3" width="4" height="15">
    <animate attributeName="opacity" values="1;0" times="0;1" dur="1.1s" begin="-0.6111111111111112s" repeatCount="indefinite"></animate>
  </rect>
</g><g transform="rotate(160 50 50)">
  <rect x="48" y="26.5" rx="9.6" ry="5.3" width="4" height="15">
    <animate attributeName="opacity" values="1;0" times="0;1" dur="1.1s" begin="-0.48888888888888893s" repeatCount="indefinite"></animate>
  </rect>
</g><g transform="rotate(200 50 50)">
  <rect x="48" y="26.5" rx="9.6" ry="5.3" width="4" height="15">
    <animate attributeName="opacity" values="1;0" times="0;1" dur="1.1s" begin="-0.3666666666666667s" repeatCount="indefinite"></animate>
  </rect>
</g><g transform="rotate(240 50 50)">
  <rect x="48" y="26.5" rx="9.6" ry="5.3" width="4" height="15">
    <animate attributeName="opacity" values="1;0" times="0;1" dur="1.1s" begin="-0.24444444444444446s" repeatCount="indefinite"></animate>
  </rect>
</g><g transform="rotate(280 50 50)">
  <rect x="48" y="26.5" rx="9.6" ry="5.3" width="4" height="15">
    <animate attributeName="opacity" values="1;0" times="0;1" dur="1.1s" begin="-0.12222222222222223s" repeatCount="indefinite"></animate>
  </rect>
</g><g transform="rotate(320 50 50)">
  <rect x="48" y="26.5" rx="9.6" ry="5.3" width="4" height="15">
    <animate attributeName="opacity" values="1;0" times="0;1" dur="1.1s" begin="0s" repeatCount="indefinite"></animate>
  </rect>
</g></svg>
